<?xml version="1.0" standalone="no"?>
<!DOCTYPE svg PUBLIC "-//W3C//DTD SVG 20010904//EN"
 "http://www.w3.org/TR/2001/REC-SVG-20010904/DTD/svg10.dtd">
<svg version="1.0" xmlns="http://www.w3.org/2000/svg"
 width="512.000000pt" height="512.000000pt" viewBox="0 0 512.000000 512.000000"
 preserveAspectRatio="xMidYMid meet">
<metadata>
Created by potrace 1.16, written by Peter Selinger 2001-2019
</metadata>
<g transform="translate(0.000000,512.000000) scale(0.100000,-0.100000)"
fill="#000000" stroke="none">
<path d="M2589 5091 c-23 -23 -29 -38 -29 -72 0 -33 114 -327 501 -1293 276
-688 514 -1278 529 -1311 15 -33 76 -186 137 -340 286 -727 729 -1836 754
-1885 34 -69 86 -123 152 -158 46 -24 63 -27 152 -27 85 0 107 3 148 24 64 32
127 95 156 156 32 66 40 185 18 253 -17 51 -889 1776 -1032 2042 -46 85 -130
250 -186 365 -264 543 -1123 2222 -1150 2248 -42 39 -109 39 -150 -2z m1834
-3777 c530 -1047 508 -995 443 -1060 -29 -29 -41 -34 -80 -34 -89 0 -56 -69
-596 1280 -269 673 -490 1227 -490 1230 0 7 185 -353 723 -1416z"/>
<path d="M4941 5093 c-19 -18 -191 -346 -496 -948 -520 -1026 -504 -986 -437
-1046 24 -22 42 -29 71 -29 l39 0 -19 -56 c-24 -67 -14 -112 31 -144 45 -32
96 -27 134 13 45 48 856 2072 856 2136 0 61 -41 101 -104 101 -36 0 -52 -6
-75 -27z"/>
<path d="M3377 2000 c-29 -25 -108 -172 -394 -736 -460 -906 -425 -827 -420
-939 3 -69 9 -102 28 -140 30 -63 90 -123 154 -155 43 -22 64 -25 150 -25 89
0 106 3 150 27 63 33 120 90 150 149 13 25 134 322 270 660 250 626 264 669
236 722 -34 63 -141 67 -179 7 -6 -11 -126 -306 -266 -656 -144 -358 -265
-647 -277 -660 -36 -39 -86 -47 -135 -24 -22 11 -46 32 -52 46 -30 63 -28 67
369 849 256 504 383 763 386 791 7 56 -33 103 -93 111 -36 5 -45 1 -77 -27z"/>
<path d="M73 1493 c-12 -2 -34 -19 -49 -36 -26 -31 -26 -32 -21 -157 13 -299
125 -578 327 -817 68 -81 195 -195 279 -250 31 -20 58 -37 60 -39 1 -1 -4 -13
-13 -26 -9 -12 -16 -42 -16 -66 0 -35 6 -49 29 -73 l29 -29 685 0 685 0 30 25
c40 34 49 85 24 133 l-18 36 75 50 c95 63 236 197 311 296 173 228 261 467
286 776 5 66 3 89 -11 117 -34 72 62 67 -1377 66 -711 -1 -1303 -4 -1315 -6z
m2477 -232 c0 -10 -7 -55 -15 -98 -89 -469 -472 -845 -944 -928 -96 -17 -297
-20 -388 -5 -404 66 -751 343 -902 720 -31 79 -65 204 -76 283 l-6 47 1165 0
c1137 0 1166 0 1166 -19z"/>
<path d="M603 1056 c-34 -16 -63 -61 -63 -99 0 -36 90 -168 168 -246 174 -173
420 -281 643 -281 76 0 82 2 110 29 49 50 36 138 -26 169 -11 5 -54 13 -95 17
-233 21 -445 142 -570 325 -21 30 -46 63 -57 72 -27 25 -73 30 -110 14z"/>
</g>
</svg>
